<svg width="32" height="32" viewBox="0 0 32 32" fill="none" xmlns="http://www.w3.org/2000/svg">
<g clip-path="url(#clip0_355_361)">
<path d="M31.3333 15.3329H0.666687C0.298687 15.3329 0 15.6316 0 15.9996C0 16.3676 0.298687 16.6663 0.666687 16.6663H31.3334C31.7014 16.6663 32.0001 16.3676 32.0001 15.9996C32.0001 15.6316 31.7013 15.3329 31.3333 15.3329Z" fill="#006C73"/>
<path d="M31.8039 15.5287L21.1372 4.86208C20.8772 4.60208 20.4545 4.60208 20.1945 4.86208C19.9345 5.12208 19.9345 5.54477 20.1945 5.80477L30.8612 16.4715C30.9919 16.6008 31.1625 16.6661 31.3332 16.6661C31.5039 16.6661 31.6745 16.6008 31.8039 16.4715C32.0639 16.2114 32.0639 15.7887 31.8039 15.5287Z" fill="#006C73"/>
<path d="M31.8038 15.5287C31.5438 15.2687 31.1211 15.2687 30.8611 15.5287L20.1945 26.1954C19.9345 26.4554 19.9345 26.8781 20.1945 27.1381C20.3252 27.2674 20.4958 27.3328 20.6665 27.3328C20.8372 27.3328 21.0078 27.2675 21.1372 27.1381L31.8039 16.4714C32.0638 16.2114 32.0638 15.7887 31.8038 15.5287Z" fill="#006C73"/>
</g>
<defs>
<clipPath id="clip0_355_361">
<rect width="32" height="32" fill="white"/>
</clipPath>
</defs>
</svg>
