<svg width="32" height="32" viewBox="0 0 32 32" fill="none" xmlns="http://www.w3.org/2000/svg">
<g clip-path="url(#clip0_375_2080)">
<path d="M31.3333 15.333H0.666687C0.298687 15.333 0 15.6317 0 15.9997C0 16.3677 0.298687 16.6664 0.666687 16.6664H31.3334C31.7014 16.6664 32.0001 16.3677 32.0001 15.9997C32.0001 15.6317 31.7013 15.333 31.3333 15.333Z" fill="#006C73"/>
<path d="M31.8034 15.5286L21.1367 4.86199C20.8767 4.60199 20.454 4.60199 20.194 4.86199C19.934 5.12199 19.934 5.54468 20.194 5.80468L30.8607 16.4714C30.9914 16.6007 31.162 16.6661 31.3327 16.6661C31.5034 16.6661 31.674 16.6007 31.8034 16.4714C32.0634 16.2113 32.0634 15.7886 31.8034 15.5286Z" fill="#006C73"/>
<path d="M31.8033 15.5285C31.5433 15.2685 31.1206 15.2685 30.8606 15.5285L20.194 26.1952C19.934 26.4552 19.934 26.8779 20.194 27.1379C20.3247 27.2672 20.4953 27.3326 20.666 27.3326C20.8367 27.3326 21.0073 27.2672 21.1367 27.1379L31.8034 16.4712C32.0633 16.2112 32.0633 15.7885 31.8033 15.5285Z" fill="#006C73"/>
</g>
<defs>
<clipPath id="clip0_375_2080">
<rect width="32" height="32" fill="white"/>
</clipPath>
</defs>
</svg>