<svg width="18" height="18" viewBox="0 0 18 18" fill="none" xmlns="http://www.w3.org/2000/svg">
<g clip-path="url(#clip0_375_2011)">
<path d="M4.875 11.25H2.625C2.418 11.25 2.25 11.082 2.25 10.875V8.625C2.25 8.418 2.418 8.25 2.625 8.25H4.875C5.082 8.25 5.24999 8.418 5.24999 8.625V10.875C5.24999 11.082 5.082 11.25 4.875 11.25ZM3 10.5H4.5V9H3V10.5Z" fill="#006C73"/>
<path d="M4.875 15.75H2.625C2.418 15.75 2.25 15.582 2.25 15.375V13.125C2.25 12.918 2.418 12.75 2.625 12.75H4.875C5.082 12.75 5.24999 12.918 5.24999 13.125V15.375C5.24999 15.582 5.082 15.75 4.875 15.75ZM3 15H4.5V13.5H3V15Z" fill="#006C73"/>
<path d="M10.125 11.25H7.875C7.668 11.25 7.5 11.082 7.5 10.875V8.625C7.5 8.418 7.668 8.25 7.875 8.25H10.125C10.332 8.25 10.5 8.418 10.5 8.625V10.875C10.5 11.082 10.332 11.25 10.125 11.25ZM8.25 10.5H9.75V9H8.25V10.5Z" fill="#006C73"/>
<path d="M10.125 15.75H7.875C7.668 15.75 7.5 15.582 7.5 15.375V13.125C7.5 12.918 7.668 12.75 7.875 12.75H10.125C10.332 12.75 10.5 12.918 10.5 13.125V15.375C10.5 15.582 10.332 15.75 10.125 15.75ZM8.25 15H9.75V13.5H8.25V15Z" fill="#006C73"/>
<path d="M15.375 11.25H13.125C12.918 11.25 12.75 11.082 12.75 10.875V8.625C12.75 8.418 12.918 8.25 13.125 8.25H15.375C15.582 8.25 15.75 8.418 15.75 8.625V10.875C15.75 11.082 15.582 11.25 15.375 11.25ZM13.5 10.5H15V9H13.5V10.5Z" fill="#006C73"/>
<path d="M16.125 18H1.875C0.8415 18 0 17.1585 0 16.125V3.375C0 2.3415 0.8415 1.5 1.875 1.5H16.125C17.1585 1.5 18 2.3415 18 3.375V16.125C18 17.1585 17.1585 18 16.125 18ZM1.875 2.25C1.25475 2.25 0.75 2.75475 0.75 3.375V16.125C0.75 16.7452 1.25475 17.25 1.875 17.25H16.125C16.7453 17.25 17.25 16.7452 17.25 16.125V3.375C17.25 2.75475 16.7453 2.25 16.125 2.25H1.875Z" fill="#006C73"/>
<path d="M17.625 6.75H0.375C0.168 6.75 0 6.582 0 6.375C0 6.168 0.168 6 0.375 6H17.625C17.832 6 18 6.168 18 6.375C18 6.582 17.832 6.75 17.625 6.75Z" fill="#006C73"/>
<path d="M4.125 3.75C3.918 3.75 3.75 3.582 3.75 3.375V0.375C3.75 0.168 3.918 0 4.125 0C4.332 0 4.5 0.168 4.5 0.375V3.375C4.5 3.582 4.332 3.75 4.125 3.75Z" fill="#006C73"/>
<path d="M13.875 3.75C13.668 3.75 13.5 3.582 13.5 3.375V0.375C13.5 0.168 13.668 0 13.875 0C14.082 0 14.25 0.168 14.25 0.375V3.375C14.25 3.582 14.082 3.75 13.875 3.75Z" fill="#006C73"/>
</g>
<defs>
<clipPath id="clip0_375_2011">
<rect width="18" height="18" fill="white"/>
</clipPath>
</defs>
</svg>