<svg width="60" height="60" viewBox="0 0 60 60" fill="none" xmlns="http://www.w3.org/2000/svg">
<rect width="60" height="60" fill="#006C73"/>
<g clip-path="url(#clip0_3013_223)">
<path d="M45.9456 30.4602L45.9184 30.4746L41.3275 18.41H43.4223C43.7979 18.41 44.1024 18.0884 44.1024 17.6918C44.1024 17.2953 43.7979 16.9737 43.4223 16.9737H30.6223V14.8983C30.6223 14.5017 30.3178 14.1802 29.9422 14.1802C29.5666 14.1802 29.2621 14.5017 29.2621 14.8983V16.9665H16.4689C16.0933 16.9665 15.7887 17.2881 15.7887 17.6847C15.7887 18.0813 16.0933 18.4028 16.4689 18.4028H18.6521L14.0544 30.4602C14.0204 30.5444 14.002 30.6346 14 30.726C14 34.0238 16.5319 36.6972 19.6553 36.6972C22.7786 36.6972 25.3105 34.0238 25.3105 30.726C25.3086 30.6346 25.2901 30.5444 25.2561 30.4602L20.6653 18.3956H29.2621V40.6003C26.0179 40.8588 23.481 42.9414 23.481 45.462C23.481 45.8586 23.7855 46.1802 24.1611 46.1802H35.7233C36.0989 46.1802 36.4034 45.8586 36.4034 45.462C36.4034 42.9414 33.8665 40.8588 30.6223 40.6003V18.3956H39.3075L34.7439 30.4602C34.7099 30.5444 34.6914 30.6346 34.6895 30.726C34.6895 34.0238 37.2214 36.6972 40.3447 36.6972C43.4681 36.6972 46 34.0238 46 30.726C45.998 30.6346 45.9796 30.5444 45.9456 30.4602ZM19.6519 35.2717C17.5453 35.2687 15.7513 33.6541 15.4147 31.4585H23.8618C23.5269 33.6435 21.7481 35.2547 19.6519 35.2717ZM23.617 30.0222H15.7003L19.6655 19.6021L23.617 30.0222ZM34.9207 44.7439H24.9569C25.4601 43.1999 27.5345 42.0078 29.9354 42.0078C32.3362 42.0078 34.4174 43.1999 34.9207 44.7439ZM40.3141 19.6093L44.2657 30.0222H36.349L40.3141 19.6093ZM40.3141 35.2717V35.2789C38.2157 35.2612 36.4361 33.6463 36.1041 31.4585H44.5513C44.2147 33.6541 42.4207 35.2687 40.3141 35.2717Z" fill="white"/>
</g>
<defs>
<clipPath id="clip0_3013_223">
<rect width="32" height="32" fill="white" transform="translate(14 14)"/>
</clipPath>
</defs>
</svg>
